<svg id="图层_1" data-name="图层 1" xmlns="http://www.w3.org/2000/svg" viewBox="0 0 100 100"><defs><style>.cls-1{fill:#fff;opacity:0;}.cls-2{fill:#2F3D39;}</style></defs><title>2其他垃圾</title><rect class="cls-1" width="100" height="100"/><g id="页面-1"><g id="_7.9_-iPad-mini" data-name="7.9”-iPad-mini"><g id="_3.2备份" data-name="3.2备份"><g id="分组-4"><path id="形状结合" class="cls-2" d="M46.87,68.5v18L35.8,79.48h3.69v-11Zm16.64,0v11H67.2L56.13,86.54v-18Z"/><g id="编组"><path id="形状结合备份" class="cls-2" d="M66.29,40.36,57.44,37,59,36.05,50.42,21.91a6.47,6.47,0,0,0-8.24-3.26A9.35,9.35,0,0,1,58,18.82l8,13.17,1.71-1Z"/><path id="形状结合备份-2" class="cls-2" d="M37.55,19.82l0,0h0Zm4.2-.46a6.47,6.47,0,0,1,4.5,8.88h0l-.1.17a6.5,6.5,0,0,1-.55,1L37.41,43.58l-7.24-4.18,5.4-9.35h0l3.46-6Z"/></g><g id="编组备份-2"><path id="形状结合备份-2-2" data-name="形状结合备份" class="cls-2" d="M32.35,43.94l1.49,9.36-1.59-.92L24.3,66.91a6.47,6.47,0,0,0,1.29,8.76,9.35,9.35,0,0,1-7.78-13.83l7.39-13.53-1.71-1Z"/><path id="形状结合备份-2-3" data-name="形状结合备份-2" class="cls-2" d="M28.93,79.1l0,0h0Zm-2.5-3.41a6.47,6.47,0,0,1,5.44-8.34v0h.19a6.5,6.5,0,0,1,1.1,0H46.87v8.36H26.43Z"/></g><g id="编组备份-3"><path id="形状结合备份-3" data-name="形状结合备份" class="cls-2" d="M56.13,75.51V67.39h.48l18.79-.1a6.47,6.47,0,0,0,7-5.38,9.35,9.35,0,0,1-8.33,13.5l-17.56.1Z"/><path id="形状结合备份-2-4" data-name="形状结合备份-2" class="cls-2" d="M83.82,57.33v0h0Zm-1.77,3.84a6.47,6.47,0,0,1-9.93-.72h0L72,60.3a6.5,6.5,0,0,1-.53-1L63.52,45l7.31-4.05,5.23,9.44h0l3.35,6.05Z"/></g></g></g></g></g></svg>