<svg id="图层_1" data-name="图层 1" xmlns="http://www.w3.org/2000/svg" viewBox="0 0 100 100"><defs><style>.cls-1{fill:#fff;opacity:0;}.cls-2{fill:#8F6F55;}</style></defs><title>3v</title><rect class="cls-1" width="100" height="100"/><g id="编组-2备份-3"><path id="形状结合" class="cls-2" d="M47.1,49.88V35.65l-1.85,1.85L43,35.12,32.35,24A6,6,0,0,1,31,16.47a9.87,9.87,0,0,0-1.73,15.05l8.39,8.82L40.21,43l0,0Z" transform="translate(0)"/><path id="形状结合备份-11" class="cls-2" d="M54,49.75V35.52l1.85,1.85L58.16,35,68.78,23.82a6,6,0,0,0,1.35-7.49,9.87,9.87,0,0,1,1.73,15.05l-8.39,8.82-2.55,2.68,0,0Z" transform="translate(0)"/><path id="形状结合备份-12" class="cls-2" d="M54.07,50.47v10.6l.05-.06,4.24,4.45L69,76.64a6,6,0,0,1,1.35,7.49,9.87,9.87,0,0,0,1.73-15.05l-8.39-8.82-4.3-4.52,0,0Z" transform="translate(0)"/><path id="形状结合备份-13" class="cls-2" d="M47.27,50.39,47.08,61,47,60.93l-4.31,4.38-10.82,11a6,6,0,0,0-1.48,7.46A9.87,9.87,0,0,1,29,68.67L37.49,60l4.38-4.44,0,0Z" transform="translate(0)"/><path id="形状结合备份-4" class="cls-2" d="M33.93,16.9H67.52a6,6,0,0,1-1.1,7.68H35a6,6,0,0,1-1.24-7.45Z" transform="translate(0)"/><path id="形状结合备份-10" class="cls-2" d="M32.74,83.65h34.6A6,6,0,0,0,66.24,76H33.84a6,6,0,0,0-1.24,7.45Z" transform="translate(0)"/></g><circle id="椭圆形" class="cls-2" cx="50.32" cy="28.42" r="1.43"/><circle id="椭圆形备份" class="cls-2" cx="45.69" cy="32.39" r="1.43"/><circle id="椭圆形备份-3" class="cls-2" cx="47.23" cy="66.34" r="1.43"/><circle id="椭圆形备份-4" class="cls-2" cx="52.97" cy="66.34" r="1.43"/><circle id="椭圆形备份-5" class="cls-2" cx="50.1" cy="70.75" r="1.43"/><circle id="椭圆形备份-6" class="cls-2" cx="43.27" cy="70.75" r="1.43"/><circle id="椭圆形备份-7" class="cls-2" cx="57.37" cy="70.75" r="1.43"/><circle id="椭圆形备份-2" class="cls-2" cx="54.29" cy="32.39" r="1.43"/></svg>